ffmpeg version git-2020-04-03-52523b6 Copyright (c) 2000-2020 the FFmpeg developers
  built with gcc 9.3.1 (GCC) 20200328
  configuration: --enable-gpl --enable-version3 --enable-sdl2 --enable-fontconfig --enable-gnutls --enable-iconv --enable-libass --enable-libdav1d --enable-libbluray --enable-libfreetype --enable-libmp3lame --enable-libopencore-amrnb --enable-libopencore-amrwb --enable-libopenjpeg --enable-libopus --enable-libshine --enable-libsnappy --enable-libsoxr --enable-libsrt --enable-libtheora --enable-libtwolame --enable-libvpx --enable-libwavpack --enable-libwebp --enable-libx264 --enable-libx265 --enable-libxml2 --enable-libzimg --enable-lzma --enable-zlib --enable-gmp --enable-libvidstab --enable-libvmaf --enable-libvorbis --enable-libvo-amrwbenc --enable-libmysofa --enable-libspeex --enable-libxvid --enable-libaom --enable-libmfx --enable-ffnvcodec --enable-cuda-llvm --enable-cuvid --enable-d3d11va --enable-nvenc --enable-nvdec --enable-dxva2 --enable-avisynth --enable-libopenmpt --enable-amf
  libavutil      56. 42.102 / 56. 42.102
  libavcodec     58. 77.101 / 58. 77.101
  libavformat    58. 42.100 / 58. 42.100
  libavdevice    58.  9.103 / 58.  9.103
  libavfilter     7. 77.101 /  7. 77.101
  libswscale      5.  6.101 /  5.  6.101
  libswresample   3.  6.100 /  3.  6.100
  libpostproc    55.  6.100 / 55.  6.100
Input #0, matroska,webm, from 'working_directory/downloaded_video.webm':
  Metadata:
    ENCODER         : Lavf58.42.100
  Duration: 00:15:43.94, start: -0.007000, bitrate: 3024 kb/s
    Stream #0:0(eng): Video: vp9 (Profile 0), yuv420p(tv, bt709), 1920x1080, SAR 1:1 DAR 16:9, 60 fps, 60 tbr, 1k tbn, 1k tbc (default)
    Metadata:
      DURATION        : 00:15:43.900000000
    Stream #0:1(eng): Audio: opus, 48000 Hz, stereo, fltp (default)
    Metadata:
      DURATION        : 00:15:43.941000000
Stream mapping:
  Stream #0:0 -> #0:0 (vp9 (native) -> h264 (libx264))
  Stream #0:1 -> #0:1 (opus (native) -> aac (native))
Press [q] to stop, [?] for help
[libx264 @ 0000023d07690f40] using SAR=1/1
[libx264 @ 0000023d07690f40] using cpu capabilities: MMX2 SSE2Fast SSSE3 SSE4.2 AVX FMA3 BMI2 AVX2
[libx264 @ 0000023d07690f40] profile Constrained Baseline, level 4.2, 4:2:0, 8-bit
[libx264 @ 0000023d07690f40] 264 - core 159 - H.264/MPEG-4 AVC codec - Copyleft 2003-2019 - http://www.videolan.org/x264.html - options: cabac=0 ref=1 deblock=0:0:0 analyse=0:0 me=dia subme=0 psy=1 psy_rd=1.00:0.00 mixed_ref=0 me_range=16 chroma_me=1 trellis=0 8x8dct=0 cqm=0 deadzone=21,11 fast_pskip=1 chroma_qp_offset=0 threads=24 lookahead_threads=4 sliced_threads=0 nr=0 decimate=1 interlaced=0 bluray_compat=0 constrained_intra=0 bframes=0 weightp=0 keyint=250 keyint_min=25 scenecut=0 intra_refresh=0 rc=crf mbtree=0 crf=15.0 qcomp=0.60 qpmin=0 qpmax=69 qpstep=4 ip_ratio=1.40 aq=0
Output #0, mp4, to 'working_directory/export clip.mp4':
  Metadata:
    encoder         : Lavf58.42.100
    Stream #0:0(eng): Video: h264 (libx264) (avc1 / 0x31637661), yuv420p, 1920x1080 [SAR 1:1 DAR 16:9], q=-1--1, 60 fps, 15360 tbn, 60 tbc (default)
    Metadata:
      DURATION        : 00:15:43.900000000
      encoder         : Lavc58.77.101 libx264
    Side data:
      cpb: bitrate max/min/avg: 0/0/0 buffer size: 0 vbv_delay: N/A
    Stream #0:1(eng): Audio: aac (LC) (mp4a / 0x6134706D), 48000 Hz, stereo, fltp, 192 kb/s (default)
    Metadata:
      DURATION        : 00:15:43.941000000
      encoder         : Lavc58.77.101 aac
frame=  265 fps=0.0 q=18.0 size=    9472kB time=00:00:04.59 bitrate=16891.7kbits/s speed=9.17x    frame=  300 fps=0.0 q=-1.0 Lsize=   12637kB time=00:00:05.02 bitrate=20620.6kbits/s speed= 8.8x    
video:12517kB audio:113kB subtitle:0kB other streams:0kB global headers:0kB muxing overhead: 0.053869%
[libx264 @ 0000023d07690f40] frame I:2     Avg QP:12.50  size:136026
[libx264 @ 0000023d07690f40] frame P:298   Avg QP:14.97  size: 42097
[libx264 @ 0000023d07690f40] mb I  I16..4: 100.0%  0.0%  0.0%
[libx264 @ 0000023d07690f40] mb P  I16..4:  6.2%  0.0%  0.0%  P16..4: 36.3%  0.0%  0.0%  0.0%  0.0%    skip:57.5%
[libx264 @ 0000023d07690f40] coded y,uvDC,uvAC intra: 41.4% 52.3% 19.5% inter: 20.9% 17.9% 1.0%
[libx264 @ 0000023d07690f40] i16 v,h,dc,p: 43% 22% 14% 21%
[libx264 @ 0000023d07690f40] i8c dc,h,v,p: 38% 19% 28% 15%
[libx264 @ 0000023d07690f40] kb/s:20507.06
[aac @ 0000023d07685380] Qavg: 7363.790
